<?xml version="1.0" encoding="iso-8859-1"?>
<!-- Generator: Adobe Illustrator 16.0.0, SVG Export Plug-In . SVG Version: 6.00 Build 0)  -->
<!DOCTYPE svg PUBLIC "-//W3C//DTD SVG 1.1//EN" "http://www.w3.org/Graphics/SVG/1.1/DTD/svg11.dtd">
<svg version="1.1" xmlns="http://www.w3.org/2000/svg" xmlns:xlink="http://www.w3.org/1999/xlink" x="0px" y="0px" width="24px"
	 height="24px" viewBox="0 0 24 24" style="enable-background:new 0 0 24 24;" xml:space="preserve">
<g id="AR-ISO">
	<path style="fill:#2D79B6;" d="M19.598,13.037H18.72c0,0-0.021,0.015-0.02,0.021c0.247,0.548-0.447,0.912-0.896,0.579
		c-0.191-0.14-0.379-0.485,0.102-0.785c0.359-0.219,0.915-0.544,1.241-0.725c1.166-0.65,1.002-1.587-0.544-1.689
		c-3.732-0.25-10.405-0.585-13.04-0.774C5.505,9.662,5.47,9.699,5.511,9.721c2.178,1.042,4.164,1.134,6.342,1.852
		c1.242,0.406,0.997,0.969-0.479,1.194c-2.751,0.42-6.494,0.734-9.31,1.479c-0.04,0.014-0.034,0.031,0.01,0.031
		c6.798-0.181,14.157-0.151,19.655,0.012c0.014,0,0.034-0.022,0.032-0.033C21.628,13.681,21.123,13.031,19.598,13.037z"/>
</g>
<g id="Layer_1">
</g>
</svg>
