<?xml version="1.0" encoding="utf-8"?>
<!-- Generator: Adobe Illustrator 25.2.0, SVG Export Plug-In . SVG Version: 6.00 Build 0)  -->
<svg version="1.1" id="Layer_1" xmlns="http://www.w3.org/2000/svg" xmlns:xlink="http://www.w3.org/1999/xlink" x="0px" y="0px"
	 viewBox="0 0 228.6 177.4" style="enable-background:new 0 0 228.6 177.4;" xml:space="preserve">
<style type="text/css">
	.st0{fill:#000000;}
	.st1{fill:#ECE9E5;}
</style>
<g>
	<g>
		<path class="st0" d="M50.6,94.2c-3.4,0-6.2-2.8-6.2-6.2c0-3.4,2.8-6.2,6.2-6.2h42.5c3.4,0,6.2,2.8,6.2,6.2c0,3.4-2.8,6.2-6.2,6.2
			H50.6z"/>
		<path class="st1" d="M93.1,82.7c2.9,0,5.3,2.4,5.3,5.3s-2.4,5.3-5.3,5.3H50.6c-2.9,0-5.3-2.4-5.3-5.3s2.4-5.3,5.3-5.3H93.1
			 M93.1,80.9H50.6c-3.9,0-7.1,3.2-7.1,7.1c0,3.9,3.2,7.1,7.1,7.1h42.5c3.9,0,7.1-3.2,7.1-7.1C100.2,84.1,97,80.9,93.1,80.9
			L93.1,80.9z"/>
	</g>
	<g>
		<path class="st0" d="M50.6,122.5c-3.4,0-6.2-2.8-6.2-6.2c0-3.4,2.8-6.2,6.2-6.2h28.3c3.4,0,6.2,2.8,6.2,6.2c0,3.4-2.8,6.2-6.2,6.2
			H50.6z"/>
		<path class="st1" d="M78.9,111c2.9,0,5.3,2.4,5.3,5.3s-2.4,5.3-5.3,5.3H50.6c-2.9,0-5.3-2.4-5.3-5.3s2.4-5.3,5.3-5.3H78.9
			 M78.9,109.2H50.6c-3.9,0-7.1,3.2-7.1,7.1c0,3.9,3.2,7.1,7.1,7.1h28.3c3.9,0,7.1-3.2,7.1-7.1C86,112.4,82.8,109.2,78.9,109.2
			L78.9,109.2z"/>
	</g>
	<g>
		<path class="st0" d="M109.6,152.3c-1.7,0-3.2-0.6-4.4-1.8l-14.2-14.2c-1.2-1.2-1.8-2.7-1.8-4.4c0-1.7,0.6-3.2,1.8-4.4
			c1.2-1.2,2.7-1.8,4.4-1.8s3.2,0.6,4.4,1.8l9.8,9.8l16.9-16.9c1.2-1.2,2.7-1.8,4.4-1.8c1.7,0,3.2,0.6,4.4,1.8
			c2.4,2.4,2.4,6.3,0,8.7L114,150.5C112.8,151.6,111.3,152.3,109.6,152.3z"/>
		<path class="st1" d="M130.9,119.5c1.4,0,2.7,0.5,3.7,1.5c2.1,2.1,2.1,5.4,0,7.5l-21.3,21.3c-1,1-2.3,1.5-3.7,1.5s-2.7-0.5-3.7-1.5
			l-14.2-14.2c-1-1-1.5-2.3-1.5-3.7c0-1.4,0.5-2.7,1.5-3.7c1-1,2.3-1.5,3.7-1.5c1.4,0,2.7,0.5,3.7,1.5l9.2,9.2l1.3,1.3l1.3-1.3
			l16.2-16.2C128.2,120.1,129.5,119.5,130.9,119.5 M130.9,117.7c-1.8,0-3.6,0.7-5,2.1l-16.2,16.2l-9.2-9.2c-1.4-1.4-3.2-2.1-5-2.1
			c-1.8,0-3.6,0.7-5,2.1c-2.8,2.8-2.8,7.3,0,10l14.2,14.2c1.4,1.4,3.2,2.1,5,2.1s3.6-0.7,5-2.1l21.3-21.3c2.8-2.8,2.8-7.3,0-10
			C134.5,118.4,132.7,117.7,130.9,117.7L130.9,117.7z"/>
	</g>
	<g>
		<path class="st0" d="M36.4,150.8c-11.2,0-20.4-9.1-20.4-20.4v-85c0-11.2,9.1-20.4,20.4-20.4h70.8c11.2,0,20.4,9.1,20.4,20.4v60.7
			c0,3.4-2.8,6.2-6.2,6.2c-3.4,0-6.2-2.8-6.2-6.2V45.5c0-4.4-3.6-8-8-8H36.4c-4.4,0-8,3.6-8,8v85c0,4.4,3.6,8,8,8h38.2
			c3.4,0,6.2,2.8,6.2,6.2s-2.8,6.2-6.2,6.2H36.4z"/>
		<path class="st1" d="M107.3,26c10.7,0,19.5,8.7,19.5,19.5v60.7c0,2.9-2.4,5.3-5.3,5.3s-5.3-2.4-5.3-5.3V45.5c0-4.9-4-8.9-8.9-8.9
			H36.4c-4.9,0-8.9,4-8.9,8.9v85c0,4.9,4,8.9,8.9,8.9h38.2c2.9,0,5.3,2.4,5.3,5.3c0,2.9-2.4,5.3-5.3,5.3H36.4
			c-10.7,0-19.5-8.7-19.5-19.5v-85C17,34.8,25.7,26,36.4,26H107.3 M107.3,24.2H36.4c-11.7,0-21.3,9.5-21.3,21.3v85
			c0,11.7,9.5,21.3,21.3,21.3h38.2c3.9,0,7.1-3.2,7.1-7.1c0-3.9-3.2-7.1-7.1-7.1H36.4c-3.9,0-7.1-3.2-7.1-7.1v-85
			c0-3.9,3.2-7.1,7.1-7.1h70.8c3.9,0,7.1,3.2,7.1,7.1v60.7c0,3.9,3.2,7.1,7.1,7.1c3.9,0,7.1-3.2,7.1-7.1V45.5
			C128.5,33.7,119,24.2,107.3,24.2L107.3,24.2z"/>
	</g>
	<g>
		<path class="st0" d="M50.6,65.8c-3.4,0-6.2-2.8-6.2-6.2s2.8-6.2,6.2-6.2h42.5c3.4,0,6.2,2.8,6.2,6.2s-2.8,6.2-6.2,6.2H50.6z"/>
		<path class="st1" d="M93.1,54.4c2.9,0,5.3,2.4,5.3,5.3c0,2.9-2.4,5.3-5.3,5.3H50.6c-2.9,0-5.3-2.4-5.3-5.3c0-2.9,2.4-5.3,5.3-5.3
			H93.1 M93.1,52.6H50.6c-3.9,0-7.1,3.2-7.1,7.1c0,3.9,3.2,7.1,7.1,7.1h42.5c3.9,0,7.1-3.2,7.1-7.1C100.2,55.7,97,52.6,93.1,52.6
			L93.1,52.6z"/>
	</g>
	<g>
		<g>
			
				<ellipse transform="matrix(0.9231 -0.3845 0.3845 0.9231 -2.3111 74.2653)" class="st0" cx="184.6" cy="42.9" rx="15.5" ry="15.5"/>
		</g>
		<g>
			<path class="st0" d="M184.6,63.8L184.6,63.8c-15.9,0-28.8,12.9-28.8,28.8l0,0c0,4.2,3.4,7.6,7.6,7.6h42.5c4.2,0,7.6-3.4,7.6-7.6
				l0,0C213.4,76.7,200.5,63.8,184.6,63.8z"/>
		</g>
	</g>
</g>
</svg>
