<?xml version="1.0" encoding="utf-8"?>
<!-- Generator: Adobe Illustrator 25.2.0, SVG Export Plug-In . SVG Version: 6.00 Build 0)  -->
<svg version="1.1" id="Layer_1" xmlns="http://www.w3.org/2000/svg" xmlns:xlink="http://www.w3.org/1999/xlink" x="0px" y="0px"
	 viewBox="0 0 228.6 177.4" style="enable-background:new 0 0 228.6 177.4;" xml:space="preserve">
<style type="text/css">
	.st0{fill:#000000;}
	.st1{fill-rule:evenodd;clip-rule:evenodd;fill:#F2EEEA;stroke:#000000;stroke-width:2.912;stroke-miterlimit:10;}
</style>
<g>
	<g>
		<g>
			<path class="st0" d="M96.9,48.3L96.9,48.3c0-0.2,0-0.4,0-0.6c-0.2-1-0.8-1.6-1.6-2.2c-1.8-2-5.9-6.1-14.3-14.5L65.8,15.8
				c-0.2-0.2-0.2-0.2-0.4-0.4c0,0,0,0-0.2,0c-0.2,0-0.2-0.2-0.4-0.2h-0.2c-0.2,0-0.2,0-0.4-0.2c-0.2,0-0.4,0-0.6,0H3
				c-1.6,0-3,1.4-3,3v141.3c0,1.2,0.6,2.2,1.8,2.8c1,0.4,2.4,0.2,3.2-0.4l7.1-6.5l7.1,6.3c1.2,1,2.8,1,4,0l7.1-6.3l7.1,6.3
				c1.2,1,2.8,1,4,0l7.1-6.3l7.1,6.3c1.2,1,2.8,1,4,0l7.1-6.3l7.1,6.3c1.2,1,2.8,1,4,0l7.1-6.3l7.1,6.3c0.6,0.4,1.2,0.8,2,0.8
				c0.4,0,0.8,0,1.2-0.2c1-0.4,1.8-1.6,1.8-2.8V48.3L96.9,48.3L96.9,48.3z M86.8,149.1c-1.2-1-2.8-1-4,0l-7.1,6.3l-7.1-6.3
				c-1.2-1-2.8-1-4,0l-7.1,6.3l-7.1-6.3c-1.2-1-2.8-1-4,0l-7.1,6.3l-7.1-6.3c-1.2-1-2.8-1-4,0l-7.1,6.3l-7.1-6.3
				c-0.6-0.6-1.2-0.8-2-0.8s-1.4,0.2-2,0.8l-4,3.6V21.1h54.5v27.3c0,1.6,1.4,3,3,3h27.3v101.4L86.8,149.1z M81.8,119.6
				c0,1.6-1.4,3-3,3H18.2c-1.6,0-3-1.4-3-3c0-1.6,1.4-3,3-3h60.6C80.4,116.5,81.8,118,81.8,119.6z M81.8,106.6c0,1.6-1.4,3-3,3H18.2
				c-1.6,0-3-1.4-3-3c0-1.6,1.4-3,3-3h60.6C80.4,103.5,81.8,105,81.8,106.6z M81.8,93.9c0,1.6-1.4,3-3,3H18.2c-1.6,0-3-1.4-3-3
				c0-1.6,1.4-3,3-3h60.6C80.4,90.9,81.8,92.3,81.8,93.9z"/>
		</g>
		<g>
			<path class="st0" d="M26.7,69c-1.5,0-3-0.1-4.5-0.3c-1.5-0.2-3-0.5-4.3-0.8v-5.1c0.9,0.2,1.9,0.5,2.9,0.6c1,0.2,2,0.3,3,0.4
				s1.9,0.1,2.8,0.1c1.5,0,2.7-0.1,3.6-0.4c0.9-0.3,1.5-0.6,1.9-1.1c0.4-0.5,0.6-1.1,0.6-1.8c0-0.9-0.3-1.6-1-2.1
				c-0.7-0.5-1.9-1-3.7-1.4l-2.4-0.6c-2.8-0.6-4.9-1.6-6.4-3s-2.2-3.1-2.2-5.3c0-2.7,1.1-4.9,3.4-6.4c2.2-1.5,5.6-2.3,10.2-2.3
				c1.4,0,2.7,0.1,4,0.2c1.3,0.1,2.4,0.3,3.4,0.6v5.1c-1-0.3-2.2-0.5-3.4-0.6s-2.4-0.2-3.5-0.2c-1.8,0-3.2,0.1-4.2,0.4
				c-1,0.3-1.7,0.7-2.2,1.2c-0.4,0.5-0.7,1.1-0.7,1.8c0,0.8,0.3,1.5,0.9,2c0.6,0.5,1.7,0.9,3.3,1.3l2.4,0.6c2.1,0.5,3.8,1.1,5.1,1.8
				c1.3,0.7,2.3,1.7,3,2.7c0.6,1.1,1,2.4,1,3.8c0,1.8-0.5,3.4-1.5,4.8c-1,1.3-2.5,2.3-4.5,3.1C31.8,68.7,29.4,69,26.7,69z
				 M25.2,40.7v-5.5h6.5v5.5H25.2z M25.2,73.3v-5.8l6.5-0.1v5.8H25.2z"/>
		</g>
	</g>
	<g>
		<g>
			<path class="st1" d="M169.2,56.8c17.3,0,31.4,14.1,31.4,31.4c0,17.3-14.1,31.4-31.4,31.4c-17.3,0-31.4-14.1-31.4-31.4
				C137.7,70.9,151.8,56.8,169.2,56.8z"/>
			<g>
				<g>
					<path class="st0" d="M150.7,96.8c-0.9,0-1.7-0.1-2.5-0.2c-0.8-0.1-1.6-0.3-2.3-0.5v-3c0.7,0.2,1.5,0.4,2.3,0.5
						c0.8,0.1,1.6,0.2,2.3,0.2c1.3,0,2.3-0.2,2.9-0.7c0.6-0.4,0.9-1.1,0.9-1.9c0-0.6-0.2-1-0.5-1.4c-0.3-0.4-0.9-0.7-1.6-0.9
						c-0.8-0.2-1.9-0.4-3.4-0.5l-2.3-0.1l0.6-10.1h10.2v3.1h-8.3l1.8-1.7l-0.5,7.2l-2.4-1.4l2.3,0.1c1.9,0.1,3.4,0.4,4.5,0.8
						c1.1,0.4,2,1.1,2.5,1.9c0.5,0.8,0.8,1.8,0.8,3c0,1.9-0.6,3.3-1.9,4.3C155,96.3,153.2,96.8,150.7,96.8z"/>
					<path class="st0" d="M167.1,96.8c-1.5,0-2.8-0.3-3.8-1s-1.9-1.7-2.5-3.1c-0.6-1.4-0.9-3.2-0.9-5.4c0-2.2,0.3-4,0.9-5.4
						s1.4-2.4,2.5-3.1c1.1-0.7,2.3-1,3.8-1c1.5,0,2.8,0.3,3.8,1c1.1,0.7,1.9,1.7,2.5,3.1s0.9,3.2,0.9,5.4c0,2.2-0.3,4-0.9,5.4
						c-0.6,1.4-1.4,2.4-2.5,3.1S168.5,96.8,167.1,96.8z M167.1,93.5c0.7,0,1.2-0.2,1.7-0.6c0.5-0.4,0.8-1,1.1-1.9
						c0.3-0.9,0.4-2.1,0.4-3.7s-0.1-2.8-0.4-3.7c-0.3-0.9-0.6-1.5-1.1-1.9c-0.5-0.4-1-0.6-1.7-0.6c-0.7,0-1.2,0.2-1.7,0.6
						s-0.8,1-1.1,1.9c-0.2,0.9-0.4,2.1-0.4,3.7c0,1.6,0.1,2.8,0.4,3.7c0.2,0.9,0.6,1.5,1.1,1.9C165.8,93.3,166.4,93.5,167.1,93.5z"
						/>
				</g>
				<g>
					<path class="st0" d="M180.8,89.1c-0.6,0-1.2-0.1-1.7-0.4c-0.5-0.3-0.9-0.7-1.1-1.2c-0.3-0.5-0.4-1.2-0.4-2.1
						c0-0.8,0.1-1.5,0.4-2.1c0.3-0.5,0.6-1,1.1-1.2s1-0.4,1.7-0.4s1.2,0.1,1.7,0.4s0.9,0.7,1.1,1.2c0.3,0.5,0.4,1.2,0.4,2.1
						c0,0.8-0.1,1.5-0.4,2.1s-0.6,1-1.1,1.2C181.9,88.9,181.4,89.1,180.8,89.1z M180.8,87.5c0.2,0,0.4-0.1,0.6-0.2
						c0.2-0.1,0.3-0.3,0.4-0.7c0.1-0.3,0.2-0.7,0.2-1.3s0-1-0.2-1.3c-0.1-0.3-0.2-0.5-0.4-0.7c-0.2-0.1-0.4-0.2-0.6-0.2
						s-0.4,0.1-0.6,0.2c-0.2,0.1-0.3,0.4-0.4,0.7s-0.2,0.7-0.2,1.3c0,0.5,0.1,1,0.2,1.3c0.1,0.3,0.2,0.5,0.4,0.7
						S180.5,87.5,180.8,87.5z M181.6,93.6l5.3-11.8h2.1l-5.3,11.8H181.6z M189.7,93.8c-0.6,0-1.2-0.1-1.7-0.4
						c-0.5-0.3-0.9-0.7-1.1-1.2c-0.3-0.5-0.4-1.2-0.4-2.1c0-0.8,0.1-1.5,0.4-2.1c0.3-0.5,0.6-1,1.1-1.2s1-0.4,1.7-0.4
						s1.2,0.1,1.7,0.4s0.9,0.7,1.1,1.2c0.3,0.5,0.4,1.2,0.4,2.1c0,0.8-0.1,1.5-0.4,2.1c-0.3,0.5-0.6,1-1.1,1.2
						C190.9,93.6,190.3,93.8,189.7,93.8z M189.7,92.2c0.2,0,0.4-0.1,0.6-0.2c0.2-0.1,0.3-0.3,0.4-0.7c0.1-0.3,0.2-0.7,0.2-1.3
						c0-0.5-0.1-1-0.2-1.3c-0.1-0.3-0.2-0.5-0.4-0.7c-0.2-0.1-0.4-0.2-0.6-0.2c-0.2,0-0.4,0.1-0.6,0.2c-0.2,0.1-0.3,0.3-0.4,0.7
						c-0.1,0.3-0.2,0.7-0.2,1.2c0,0.5,0.1,1,0.2,1.3s0.2,0.5,0.4,0.7C189.3,92.1,189.5,92.2,189.7,92.2z"/>
				</g>
			</g>
		</g>
		<g>
			<g>
				<g>
					<path class="st0" d="M169.8,37.1c24.9,0,45.7,17.9,50.2,41.5l7.5-0.2c0.9,0,1.4,1,0.9,1.7l-10.8,15.5c-0.4,0.6-1.3,0.6-1.7,0.1
						l-11.7-14.8c-0.5-0.7-0.1-1.7,0.8-1.7l7.8-0.2c-4.3-19.8-21.9-34.6-43-34.6c-24.3,0-44,19.7-44,44s19.7,44,44,44
						c8.8,0,16.9-2.6,23.8-7l3.6,6.2c-7.9,5-17.3,7.9-27.3,7.9c-28.2,0-51.1-22.9-51.1-51.1C118.6,60,141.5,37.1,169.8,37.1
						L169.8,37.1z"/>
				</g>
			</g>
		</g>
	</g>
</g>
</svg>
