<?xml version="1.0" encoding="utf-8"?>
<!-- Generator: Adobe Illustrator 25.2.0, SVG Export Plug-In . SVG Version: 6.00 Build 0)  -->
<svg version="1.1" id="Layer_1" xmlns="http://www.w3.org/2000/svg" xmlns:xlink="http://www.w3.org/1999/xlink" x="0px" y="0px"
	 viewBox="0 0 228.6 177.4" style="enable-background:new 0 0 228.6 177.4;" xml:space="preserve">
<style type="text/css">
	.st0{fill:#000000;stroke:#ECE9E5;stroke-width:0.8908;stroke-miterlimit:10;}
	.st1{fill:#000000;}
	.st2{fill:#ECE9E5;}
	.st3{fill:#F2EEEA;}
</style>
<g>
	<g>
		<g>
			<g>
				<g>
					<path class="st0" d="M149,123.9h-45.9c-2.2,0-3.9-1.8-3.9-3.9s1.8-3.9,3.9-3.9H149c2.2,0,3.9,1.8,3.9,3.9
						S151.2,123.9,149,123.9z"/>
				</g>
				<g>
					<ellipse class="st0" cx="84.7" cy="120" rx="6.4" ry="6.3"/>
				</g>
			</g>
			<g>
				<g>
					<path class="st0" d="M149,146.6h-45.9c-2.2,0-3.9-1.8-3.9-3.9s1.8-3.9,3.9-3.9H149c2.2,0,3.9,1.8,3.9,3.9
						S151.2,146.6,149,146.6z"/>
				</g>
				<g>
					<ellipse class="st0" cx="84.7" cy="142.7" rx="6.4" ry="6.3"/>
				</g>
			</g>
			<g>
				<g>
					<path class="st0" d="M149,100.9h-45.9c-2.2,0-3.9-1.8-3.9-3.9c0-2.2,1.8-3.9,3.9-3.9H149c2.2,0,3.9,1.8,3.9,3.9
						C153,99.1,151.2,100.9,149,100.9z"/>
				</g>
				<g>
					<ellipse class="st0" cx="84.7" cy="96.9" rx="6.4" ry="6.3"/>
				</g>
			</g>
			<g>
				<g>
					<path class="st1" d="M70.4,169.2c-5.7,0-10.4-4.7-10.4-10.4V47.3c0-2.1,1.7-3.8,3.8-3.8c2.1,0,3.8,1.7,3.8,3.8v111.6
						c0,1.5,1.2,2.7,2.7,2.7H161c1.5,0,2.7-1.2,2.7-2.7V47.3c0-2.1,1.7-3.8,3.8-3.8s3.8,1.7,3.8,3.8v111.6c0,5.7-4.7,10.4-10.4,10.4
						H70.4z"/>
					<path class="st2" d="M167.5,43.6c2,0,3.7,1.7,3.7,3.7v111.6c0,5.7-4.6,10.3-10.3,10.3H70.4c-5.7,0-10.3-4.6-10.3-10.3V47.3
						c0-2,1.7-3.7,3.7-3.7c2,0,3.7,1.7,3.7,3.7v111.6c0,1.6,1.3,2.9,2.9,2.9H161c1.6,0,2.9-1.3,2.9-2.9V47.3
						C163.8,45.2,165.5,43.6,167.5,43.6 M167.5,43.3c-2.2,0-3.9,1.8-3.9,3.9v111.6c0,1.4-1.2,2.6-2.6,2.6H70.4
						c-1.4,0-2.6-1.2-2.6-2.6V47.3c0-2.2-1.8-3.9-3.9-3.9s-3.9,1.8-3.9,3.9v111.6c0,5.8,4.7,10.5,10.5,10.5H161
						c5.8,0,10.5-4.7,10.5-10.5V47.3C171.5,45.1,169.7,43.3,167.5,43.3L167.5,43.3z"/>
				</g>
			</g>
		</g>
	</g>
	<g>
		<path class="st1" d="M114.1,8.1c-0.7,0.1-1.2,0.6-1.4,1.2l-0.8,3.8c-0.6,0.2-1.2,0.4-1.7,0.7l-3.3-2.2c-0.6-0.4-1.4-0.3-1.9,0.2
			c-1.2,1.2-2.4,2.3-3.7,3.6c-0.5,0.5-0.6,1.3-0.2,2l2.2,3.3c-0.3,0.6-0.5,1.2-0.7,1.8l-3.9,0.8c-0.7,0.1-1.2,0.8-1.2,1.5
			c0,1.7,0,3.4,0,5.1c0,0.7,0.5,1.4,1.2,1.5l3.9,0.8c0.2,0.6,0.4,1.2,0.7,1.8l-2.2,3.3c-0.4,0.6-0.3,1.4,0.2,1.9
			c1.2,1.2,2.5,2.4,3.7,3.6c0.5,0.5,1.3,0.6,1.9,0.2l3.3-2.1c0.6,0.3,1.1,0.5,1.7,0.7l0.7,3.8c0.1,0.7,0.8,1.3,1.5,1.3h5.1
			c0.7,0,1.4-0.5,1.5-1.3l0.7-3.8c0.6-0.2,1.2-0.4,1.7-0.7l3.3,2.1c0.6,0.4,1.4,0.3,1.9-0.2c1.2-1.2,2.4-2.3,3.7-3.6
			c0.5-0.5,0.6-1.3,0.2-1.9l-2.2-3.3c0.3-0.6,0.5-1.2,0.7-1.8l3.9-0.8c0.7-0.1,1.2-0.8,1.2-1.5c0-1.7,0-3.4,0-5.1
			c0-0.7-0.5-1.4-1.2-1.5l-3.9-0.8c-0.2-0.6-0.4-1.2-0.7-1.8l2.2-3.3c0.4-0.6,0.3-1.4-0.2-2c-1.2-1.2-2.5-2.4-3.7-3.6
			c-0.5-0.5-1.3-0.6-1.9-0.2l-3.3,2.2c-0.6-0.3-1.1-0.5-1.7-0.7l-0.8-3.8c-0.1-0.7-0.8-1.2-1.5-1.2h-5.1
			C114.2,8.1,114.1,8.1,114.1,8.1z"/>
		<path class="st3" d="M115.5,11.2h2.6l0.7,3.3c0.1,0.6,0.6,1,1.1,1.2c1,0.3,2,0.7,2.9,1.2c0.5,0.3,1.1,0.3,1.6,0l2.9-1.9
			c0.6,0.6,1.3,1.2,1.9,1.8l-1.9,2.9c-0.3,0.5-0.4,1.1-0.1,1.6c0.5,0.9,1,1.9,1.2,2.9c0.1,0.6,0.6,1,1.2,1.1l3.5,0.7
			c0,0.9,0,1.7,0,2.6l-3.5,0.7c-0.6,0.1-1,0.6-1.2,1.1c-0.3,1-0.7,2-1.2,2.9c-0.3,0.5-0.3,1.2,0.1,1.6l1.9,2.9
			c-0.6,0.6-1.2,1.2-1.8,1.8l-2.9-1.9c-0.5-0.3-1.1-0.3-1.6,0c-0.9,0.5-1.9,0.9-2.9,1.2c-0.6,0.1-1,0.6-1.1,1.2l-0.7,3.4h-2.6
			l-0.7-3.4c-0.1-0.6-0.6-1-1.1-1.2c-1-0.3-2-0.7-2.9-1.2c-0.5-0.3-1.1-0.3-1.6,0l-2.9,1.9c-0.6-0.6-1.2-1.2-1.8-1.8l1.9-2.9
			c0.3-0.5,0.4-1.1,0.1-1.6c-0.5-0.9-1-1.9-1.2-2.9c-0.1-0.6-0.6-1-1.2-1.1l-3.5-0.7c0-0.9,0-1.7,0-2.6l3.5-0.7
			c0.6-0.1,1-0.6,1.2-1.1c0.3-1,0.7-2.1,1.2-2.9c0.3-0.5,0.3-1.1-0.1-1.6l-1.9-2.9c0.6-0.6,1.2-1.2,1.9-1.8l2.9,1.9
			c0.5,0.3,1.1,0.3,1.6,0c0.9-0.5,1.9-1,2.9-1.2c0.6-0.1,1-0.6,1.1-1.2L115.5,11.2z"/>
		<circle class="st1" cx="116.8" cy="27.4" r="6.2"/>
		<circle class="st2" cx="116.8" cy="27.4" r="3.1"/>
		<path class="st1" d="M145.6,39.3c-1.2,0-2.3,0.5-3.1,1.4l0,0c0,0,0,0,0,0c0,0-2.1,2.1-4.4,4.4c-2.3,2.3-4.7,4.7-5.4,5.5
			c-0.6,0.6-0.5,1.6,0.1,2.2c0.6,0.6,1.6,0.5,2.2-0.1c0,0,0,0,0,0c0.5-0.5,3-3.1,5.3-5.3c2.3-2.3,4.4-4.4,4.4-4.4c0,0,0,0,0,0
			c0.3-0.3,0.6-0.4,0.9-0.4c0.7,0,1.4,0.7,1.4,1.7c0,0.5-0.1,0.9-0.4,1.2c0,0,0,0,0,0c-0.1,0.1-9.3,11.2-15.3,18.2
			c-1.7,1.9-3.9,3.8-7.1,3.8h-18.3c-2,0-4,0.4-5.7,1.9l-4.4,4.3c-0.6,0.6-0.6,1.6-0.1,2.2c0.6,0.6,1.6,0.6,2.2,0.1c0,0,0,0,0,0
			l4.4-4.3c0.9-0.9,1.8-1,3.5-1h18.3c4.4,0,7.6-2.7,9.5-4.9c6-7.1,15.4-18.3,15.4-18.3c0,0,0,0,0-0.1c0.6-0.8,1-1.9,1-3
			C150.1,41.6,148.1,39.3,145.6,39.3z"/>
		<path class="st1" d="M104.8,50.8c-3.3,0-6.7,0.5-9.4,2.7l-11.3,9.2c-0.7,0.5-0.8,1.5-0.2,2.2c0.5,0.7,1.5,0.8,2.2,0.2l11.3-9.2
			c1.9-1.5,4.4-2,7.4-2h22.8c0.3,0.8,0.2,1.7-0.3,2.6c-0.6,1.2-1.7,1.8-2.2,1.7c0,0-0.1,0-0.1,0h-14.8c-0.9,0-1.6,0.7-1.6,1.5
			s0.7,1.6,1.5,1.6c0,0,0,0,0,0h14.6h0.2v0c2.3,0.1,4.1-1.5,5.1-3.3c1-1.9,1.4-4.5-0.2-6.5c-0.3-0.4-0.7-0.6-1.2-0.6H104.8z"/>
	</g>
</g>
</svg>
