<?xml version="1.0" encoding="iso-8859-1"?>
<!-- Generator: Adobe Illustrator 16.0.0, SVG Export Plug-In . SVG Version: 6.00 Build 0)  -->
<!DOCTYPE svg PUBLIC "-//W3C//DTD SVG 1.1//EN" "http://www.w3.org/Graphics/SVG/1.1/DTD/svg11.dtd">
<svg version="1.1" xmlns="http://www.w3.org/2000/svg" xmlns:xlink="http://www.w3.org/1999/xlink" x="0px" y="0px" width="24px"
	 height="24px" viewBox="0 0 24 24" style="enable-background:new 0 0 24 24;" xml:space="preserve">
<g id="_x34_M-ISO">
	<path style="fill:#EC1651;" d="M5.449,8.129c0,0,0,0.432,0,1.295c0,0.313,0.095,0.528,0.349,0.437l2.812-1.01l-2.664-0.93
		C5.623,7.805,5.449,7.896,5.449,8.129z M9.161,4.168l6.308,2.208l0.224-0.08l0.003-0.001l0.003-0.001l0.003-0.001l0.005-0.002
		l0.008-0.003l0.006-0.002l0.008-0.003l0.01-0.004l0.011-0.003l0.012-0.005l0.004-0.001l0.009-0.003l0.014-0.005l0.015-0.006
		l0.017-0.006l0.016-0.006h0.002l0.019-0.007l0.02-0.007l0.02-0.008l0.009-0.003l0.014-0.005l0.022-0.008l0.023-0.009l0.008-0.002
		l0.018-0.007l0.025-0.01l0.021-0.007l0.006-0.003l0.029-0.01l0.029-0.011h0.001l0.029-0.011l0.032-0.011l0.002-0.002l0.03-0.011
		l0.034-0.012l0,0l0.034-0.013l0.026-0.01l0.011-0.003l0.036-0.014l0.014-0.005l0.059-0.021l0.007-0.002l0.039-0.015l0.014-0.004
		l0.028-0.011l0.028-0.01l0.015-0.006l0.042-0.015l0.002-0.001l0.046-0.016l0.007-0.003l0.039-0.015l0.015-0.005l0.032-0.012
		l0.021-0.008l0.027-0.01l0.023-0.008l0.025-0.01l0.024-0.009l0.025-0.01l0.025-0.009l0.026-0.009l0.021-0.008l0.03-0.012
		l0.017-0.005l0.039-0.015l0.007-0.003l0.045-0.016l0.002-0.001l0.042-0.015l0.015-0.006l0.028-0.01l0.029-0.011l0.013-0.004
		l0.04-0.015l0.005-0.002l0.06-0.021l0.014-0.005l0.037-0.014l0.011-0.003l0.025-0.01l0.034-0.013h0.001l0.034-0.012l0.028-0.011
		L17.5,5.646l0.031-0.012l0.03-0.01l0.001-0.001l0.029-0.011l0.027-0.01l0.006-0.002l0.021-0.009l0.027-0.009l0.018-0.006
		l0.006-0.003l0.025-0.009l0.022-0.008l0.014-0.005l0.007-0.003l0.021-0.008l0.02-0.007l0.019-0.007h0.002l0.016-0.006l0.015-0.006
		l0.016-0.006l0.014-0.005l0.01-0.003l0.003-0.002l0.013-0.003l0.009-0.004l0.011-0.004l0.008-0.003l0.008-0.002l0.011-0.005
		l0.004-0.001l0.004-0.002h0.001c0.249-0.089,0.572-0.296,0.584-0.593L8.563,1.484v2.097C8.563,3.885,8.727,4.016,9.161,4.168z
		 M5.449,4.038v1.961c0,0.311,0.12,0.556,0.723,0.767c0,0,1.391,0.487,4.173,1.461c0,0,1.163-0.418,3.489-1.254
		C13.834,6.973,11.039,5.994,5.449,4.038z M17.2,8.151c-2.326,0.836-3.489,1.254-3.489,1.254c1.321,0.462,1.981,0.693,1.981,0.693
		c1.517-0.544,2.274-0.816,2.274-0.816c0.299-0.108,0.586-0.347,0.586-0.657C17.863,8.383,17.2,8.151,17.2,8.151z"/>
	<path style="fill:#243D8A;" d="M13.215,14.699l-4.651,1.629v2.479c2.782-0.975,4.441-1.558,4.441-1.558
		c0.602-0.212,0.722-0.456,0.722-0.766v-1.168C13.727,14.847,13.727,14.513,13.215,14.699z M17.967,5.479L17.967,5.479L17.962,5.48
		l-0.004,0.001l-0.011,0.005l-0.008,0.002l-0.008,0.003l-0.011,0.004l-0.009,0.004l-0.013,0.003l-0.003,0.002l-0.01,0.003
		l-0.014,0.005l-0.016,0.006l-0.015,0.006l-0.016,0.006h-0.002l-0.019,0.007l-0.02,0.007l-0.021,0.008l-0.007,0.003l-0.014,0.005
		l-0.022,0.008l-0.025,0.009l-0.006,0.003l-0.018,0.006l-0.027,0.009l-0.021,0.009l-0.006,0.002l-0.027,0.01l-0.029,0.011
		l-0.001,0.001l-0.03,0.01L17.5,5.646l-0.004,0.001l-0.028,0.011L17.434,5.67h-0.001l-0.034,0.013l-0.025,0.01l-0.011,0.003
		l-0.037,0.014l-0.014,0.005l-0.06,0.021l-0.005,0.002l-0.04,0.015l-0.013,0.004l-0.029,0.011l-0.028,0.01l-0.015,0.006L17.08,5.797
		l-0.002,0.001l-0.045,0.016l-0.007,0.003l-0.039,0.015l-0.017,0.005l-0.03,0.012l-0.021,0.008l-0.026,0.009l-0.025,0.009
		l-0.025,0.01l-0.024,0.009l-0.025,0.01l-0.023,0.008l-0.027,0.01L16.72,5.927l-0.032,0.012l-0.015,0.005l-0.039,0.015l-0.007,0.003
		l-0.046,0.016l-0.002,0.001l-0.042,0.015l-0.015,0.006l-0.028,0.01l-0.028,0.011l-0.014,0.004l-0.039,0.015l-0.007,0.002
		l-0.059,0.021l-0.014,0.005l-0.036,0.014l-0.011,0.003l-0.026,0.01l-0.034,0.013l0,0l-0.034,0.012l-0.03,0.011L16.16,6.129
		L16.128,6.14L16.099,6.15h-0.001l-0.029,0.011l-0.029,0.01l-0.006,0.003l-0.021,0.007l-0.025,0.01l-0.018,0.007l-0.008,0.002
		l-0.023,0.009l-0.022,0.008l-0.014,0.005l-0.009,0.003l-0.02,0.008l-0.02,0.007l-0.019,0.007h-0.002l-0.016,0.006l-0.017,0.006
		l-0.015,0.006l-0.014,0.005l-0.009,0.003L15.76,6.271l-0.012,0.005l-0.011,0.003l-0.01,0.004L15.72,6.286l-0.006,0.002
		l-0.008,0.003l-0.005,0.002l-0.003,0.001l-0.003,0.001l-0.003,0.001c-4.905,1.763-7.129,2.562-7.129,2.562v0.009L5.798,9.86
		C5.559,9.946,5.461,9.762,5.451,9.478L5.449,9.479c0,0.508-0.044,0.675,0.245,0.776c0,0,0.799,0.279,2.397,0.837
		c0.534,0.188,0.405,0.191,0.938-0.001l9.061-3.268c0.353-0.127,0.464-0.252,0.464-0.525l-0.002-2.412
		C18.55,5.182,18.166,5.406,17.967,5.479z M10.261,19.444L8.563,20.04v2.476c0.96-0.336,1.488-0.521,1.488-0.521
		c0.602-0.212,0.722-0.456,0.722-0.767v-1.167C10.773,19.591,10.773,19.257,10.261,19.444z M17.967,9.282L17.967,9.282h-0.002
		l-0.003,0.001l-0.004,0.002l-0.006,0.001l-0.013,0.005l-0.008,0.004l-0.011,0.003l-0.009,0.004l-0.013,0.005h-0.003l-0.01,0.004
		l-0.014,0.005L17.857,9.32l-0.015,0.006l-0.016,0.006l-0.002,0.001l-0.019,0.006l-0.02,0.008l-0.021,0.007l-0.007,0.003
		L17.745,9.36l-0.022,0.01l-0.025,0.009l-0.006,0.002l-0.018,0.007l-0.027,0.009l-0.021,0.008l-0.006,0.002l-0.027,0.01
		l-0.029,0.011l-0.001,0.001l-0.03,0.01L17.5,9.449l-0.004,0.002l-0.028,0.011l-0.034,0.011l-0.001,0.001l-0.034,0.012l-0.025,0.01
		l-0.011,0.004l-0.037,0.014l-0.014,0.005l-0.06,0.021l-0.005,0.002l-0.04,0.014l-0.013,0.004l-0.029,0.011L17.137,9.58
		l-0.015,0.005L17.08,9.601h-0.002l-0.045,0.017L17.026,9.62l-0.039,0.014l-0.017,0.005L16.94,9.65l-0.021,0.008l-0.026,0.01
		l-0.025,0.009l-0.025,0.009l-0.024,0.009l-0.025,0.01l-0.023,0.009l-0.027,0.01L16.72,9.73l-0.032,0.011l-0.015,0.006l-0.039,0.014
		l-0.007,0.003l-0.046,0.016L16.579,9.78l-0.042,0.016l-0.015,0.005l-0.028,0.011l-0.028,0.01l-0.014,0.004L16.413,9.84
		l-0.007,0.002l-0.059,0.021l-0.014,0.005l-0.036,0.014l-0.011,0.003l-0.026,0.01l-0.034,0.013v0.001l-0.034,0.011l-0.03,0.011
		L16.16,9.932l-0.032,0.011l-0.029,0.011h-0.001l-0.029,0.011l-0.029,0.011l-0.006,0.002l-0.021,0.008l-0.025,0.009L15.969,10
		l-0.008,0.002l-0.023,0.01l-0.022,0.008l-0.014,0.004l-0.009,0.003l-0.02,0.008l-0.02,0.007l-0.019,0.007l-0.002,0.001
		l-0.016,0.006l-0.017,0.005l-0.015,0.006l-0.014,0.005l-0.009,0.003l-0.004,0.001l-0.012,0.005l-0.011,0.004l-0.01,0.003
		l-0.008,0.003l-0.006,0.003l-0.008,0.003h-0.005l-0.003,0.003h-0.003l-0.002,0.001h-0.001c-4.905,1.764-7.129,2.562-7.129,2.562
		v2.39c6.351-2.283,9.525-3.423,9.525-3.423c0.353-0.128,0.464-0.252,0.464-0.527V8.628C18.551,8.937,18.266,9.174,17.967,9.282z"/>
</g>
<g id="Layer_1">
</g>
</svg>
